<svg class="svg-icon" width="32px" height="32px" style="vertical-align: middle;fill: currentColor;" viewBox="0 0 1024 1024" version="1.1" xmlns="http://www.w3.org/2000/svg">
  <path class="top" d="M 800 128 L 640 128 L 640 96 C 639.66 78.47 625.53 64.34 608 64 L 416 64 C 398.327 64 384 78.327 384 96 L 384 128 L 224 128 C 205.853 126.799 190.799 141.853 192 160 C 190.799 178.147 205.853 193.201 224 192 L 800 192 C 818.147 193.201 833.201 178.147 832 160 C 833.201 141.853 818.147 126.799 800 128 Z" />
  <path d="M800 256 L 224 256 C 205.853 254.799 190.799 269.853 192 288 C 190.799 306.147 205.853 321.201 224 320 L 256 320 L 256 896 C 256 931.346 284.654 960 320 960 L 704 960 C 739.346 960 768 931.346 768 896 L 768 320 L 800 320 C 818.147 321.201 833.201 306.147 832 288 C 833.201 269.853 818.147 254.799 800 256 Z M 448 799.36 C 440.963 823.994 409.899 831.772 392.084 813.361 C 388.279 809.43 385.503 804.621 384 799.36 L 384 415.36 C 391.037 390.726 422.101 382.948 439.916 401.359 C 443.721 405.29 446.497 410.099 448 415.36 L 448 799.36 Z M 640 799.36 C 632.963 823.994 601.899 831.772 584.084 813.361 C 580.279 809.43 577.503 804.621 576 799.36 L 576 415.36 C 583.037 390.726 614.101 382.948 631.916 401.359 C 635.721 405.29 638.497 410.099 640 415.36 L 640 799.36 Z"></path>
</svg>